<svg width="24" height="24" viewBox="0 0 127 127" fill="none" xmlns="http://www.w3.org/2000/svg">
<path d="M63.24 115.94C34.1338 115.94 10.54 92.3462 10.54 63.24C10.54 34.1338 34.1338 10.54 63.24 10.54C92.3462 10.54 115.94 34.1338 115.94 63.24C115.94 92.3462 92.3462 115.94 63.24 115.94ZM63.24 105.4C74.4215 105.4 85.1451 100.958 93.0516 93.0516C100.958 85.1451 105.4 74.4215 105.4 63.24C105.4 52.0585 100.958 41.3349 93.0516 33.4284C85.1451 25.5218 74.4215 21.08 63.24 21.08C52.0585 21.08 41.3349 25.5218 33.4284 33.4284C25.5218 41.3349 21.08 52.0585 21.08 63.24C21.08 74.4215 25.5218 85.1451 33.4284 93.0516C41.3349 100.958 52.0585 105.4 63.24 105.4Z" fill="#ECEFF1"/>
</svg>
